<svg width="24" height="24" viewBox="0 0 24 24" fill="none" xmlns="http://www.w3.org/2000/svg">
<path fill-rule="evenodd" clip-rule="evenodd" d="M2.95078 2.89279C3.48336 2.39117 4.2259 2.25 5.01 2.25H8.64C9.4241 2.25 10.1666 2.39117 10.6992 2.89279C11.2433 3.40519 11.4 4.13203 11.4 4.89V19.11C11.4 19.868 11.2433 20.5948 10.6992 21.1072C10.1666 21.6088 9.4241 21.75 8.64 21.75H5.01C4.2259 21.75 3.48336 21.6088 2.95078 21.1072C2.40674 20.5948 2.25 19.868 2.25 19.11V4.89C2.25 4.13203 2.40674 3.40519 2.95078 2.89279ZM3.97922 3.98471C3.87826 4.07981 3.75 4.29797 3.75 4.89V19.11C3.75 19.702 3.87826 19.9202 3.97922 20.0153C4.09164 20.1212 4.3541 20.25 5.01 20.25H8.64C9.2959 20.25 9.55836 20.1212 9.67078 20.0153C9.77174 19.9202 9.9 19.702 9.9 19.11V4.89C9.9 4.29797 9.77174 4.07981 9.67078 3.98471C9.55836 3.87883 9.2959 3.75 8.64 3.75H5.01C4.3541 3.75 4.09164 3.87883 3.97922 3.98471Z" fill="#292D32"/>
<path fill-rule="evenodd" clip-rule="evenodd" d="M13.3052 2.89179C13.8382 2.39176 14.579 2.25 15.3596 2.25H18.9896C19.7737 2.25 20.5162 2.39117 21.0488 2.89279C21.5929 3.40519 21.7496 4.13203 21.7496 4.89V19.11C21.7496 19.868 21.5929 20.5948 21.0488 21.1072C20.5162 21.6088 19.7737 21.75 18.9896 21.75H15.3596C14.5755 21.75 13.833 21.6088 13.3004 21.1072C12.7564 20.5948 12.5996 19.868 12.5996 19.11V4.89C12.5996 4.12889 12.7603 3.40304 13.3052 2.89179ZM14.3315 3.98571C14.2289 4.08196 14.0996 4.30111 14.0996 4.89V19.11C14.0996 19.702 14.2279 19.9202 14.3288 20.0153C14.4412 20.1212 14.7037 20.25 15.3596 20.25H18.9896C19.6455 20.25 19.908 20.1212 20.0204 20.0153C20.1214 19.9202 20.2496 19.702 20.2496 19.11V4.89C20.2496 4.29797 20.1214 4.07981 20.0204 3.98471C19.908 3.87883 19.6455 3.75 18.9896 3.75H15.3596C14.7102 3.75 14.4461 3.87824 14.3315 3.98571Z" fill="#292D32"/>
<path fill-rule="evenodd" clip-rule="evenodd" d="M22.5303 1.46967C22.8232 1.76256 22.8232 2.23744 22.5303 2.53033L2.53033 22.5303C2.23744 22.8232 1.76256 22.8232 1.46967 22.5303C1.17678 22.2374 1.17678 21.7626 1.46967 21.4697L21.4697 1.46967C21.7626 1.17678 22.2374 1.17678 22.5303 1.46967Z" fill="#292D32"/>
<path d="M22 2L2 22" stroke="#292D32" stroke-width="1.5" stroke-linecap="round" stroke-linejoin="round"/>
</svg>
